<svg width="112" height="26" viewBox="0 0 112 26" fill="none" xmlns="http://www.w3.org/2000/svg">
<path d="M2.65467 10.9866C1.00492 10.1206 0 8.37904 0 6.51512V1.9118C0 1.13752 0.628367 0.509155 1.40265 0.509155H5.05753C8.43 0.509155 11.0235 2.75669 11.2306 5.72907C11.5248 9.98173 7.08619 13.3142 2.65467 10.9866Z" fill="#FF4C12"/>
<path d="M9.95968 25.4909H14.3441C16.6999 25.4909 18.811 24.0388 19.6535 21.8383L26.9609 2.74492C27.3704 1.66469 26.5749 0.509155 25.4217 0.509155H21.0373C18.6815 0.509155 16.5705 1.96122 15.728 4.16169L8.42289 23.2551C8.00869 24.333 8.8065 25.4909 9.95968 25.4909Z" fill="#FF4C12"/>
<path d="M36.9739 18.5L34.1417 7.8415H36.0298L38.4356 17.3276H38.6488L41.0698 7.8415H42.9578L40.1105 18.5H36.9739ZM47.3117 18.7132C46.5605 18.7132 45.8956 18.5558 45.317 18.2412C44.7485 17.9163 44.3019 17.4646 43.9771 16.886C43.6624 16.2972 43.505 15.6121 43.505 14.8304V14.6477C43.505 13.8559 43.6624 13.1708 43.9771 12.5921C44.2917 12.0135 44.7333 11.5669 45.3018 11.2522C45.8702 10.9274 46.525 10.765 47.266 10.765C47.9968 10.765 48.6364 10.9274 49.1845 11.2522C49.7327 11.5669 50.159 12.0135 50.4635 12.5921C50.7681 13.1708 50.9203 13.8458 50.9203 14.6173V15.2415H45.2713C45.2916 15.8303 45.4997 16.3023 45.8956 16.6576C46.2915 17.0129 46.7787 17.1905 47.3573 17.1905C47.9258 17.1905 48.3471 17.0687 48.6211 16.8251C48.8952 16.5713 49.1033 16.2871 49.2454 15.9724L50.6919 16.7185C50.5498 16.9926 50.3417 17.287 50.0676 17.6016C49.8037 17.9062 49.4484 18.1701 49.0018 18.3934C48.5551 18.6066 47.9918 18.7132 47.3117 18.7132ZM45.2865 13.9168H49.1388C49.0982 13.4194 48.9054 13.0236 48.5602 12.7292C48.2252 12.4348 47.7887 12.2876 47.2507 12.2876C46.6924 12.2876 46.2458 12.4348 45.9108 12.7292C45.5758 13.0236 45.3677 13.4194 45.2865 13.9168ZM55.7936 18.7132C55.1845 18.7132 54.6161 18.566 54.0882 18.2716C53.5604 17.9671 53.1391 17.5255 52.8245 16.9469C52.5098 16.3683 52.3524 15.673 52.3524 14.8609V14.6173C52.3524 13.8052 52.5098 13.1098 52.8245 12.5312C53.1391 11.9526 53.5553 11.5161 54.073 11.2218C54.6009 10.9172 55.1744 10.765 55.7936 10.765C56.2605 10.765 56.6564 10.8208 56.9813 10.9325C57.3061 11.0441 57.5649 11.1862 57.7578 11.3588C57.9608 11.5314 58.1182 11.7192 58.2298 11.9222H58.4887V7.8415H60.2245V18.5H58.5191V17.5103H58.2603C58.0776 17.8148 57.7984 18.094 57.4228 18.3477C57.0472 18.5914 56.5042 18.7132 55.7936 18.7132ZM56.3113 17.1905C56.9407 17.1905 57.4634 16.9875 57.8796 16.5815C58.2958 16.1653 58.5039 15.5765 58.5039 14.8152V14.6629C58.5039 13.8915 58.2958 13.3027 57.8796 12.8967C57.4736 12.4906 56.9508 12.2876 56.3113 12.2876C55.6819 12.2876 55.1541 12.4906 54.7278 12.8967C54.3116 13.3027 54.1035 13.8915 54.1035 14.6629V14.8152C54.1035 15.5765 54.3116 16.1653 54.7278 16.5815C55.1541 16.9875 55.6819 17.1905 56.3113 17.1905ZM62.4426 18.5V7.8415H64.1936V11.9679H64.4524C64.5337 11.7953 64.6656 11.6227 64.8483 11.4502C65.0311 11.2776 65.2696 11.1355 65.564 11.0238C65.8685 10.9122 66.2492 10.8563 66.706 10.8563C67.2846 10.8563 67.7972 10.9883 68.2438 11.2522C68.6905 11.506 69.0356 11.8664 69.2792 12.3333C69.533 12.8002 69.6599 13.3535 69.6599 13.993V18.5H67.9088V14.13C67.9088 13.521 67.7566 13.0692 67.4521 12.7749C67.1577 12.4703 66.7364 12.3181 66.1883 12.3181C65.5691 12.3181 65.0818 12.5262 64.7265 12.9424C64.3712 13.3484 64.1936 13.9321 64.1936 14.6934V18.5H62.4426ZM73.8355 18.5L71.0034 7.8415H72.8915L75.2972 17.3276H75.5104L77.9314 7.8415H79.8195L76.9721 18.5H73.8355ZM84.1733 18.7132C83.4221 18.7132 82.7572 18.5558 82.1786 18.2412C81.6102 17.9163 81.1635 17.4646 80.8387 16.886C80.524 16.2972 80.3667 15.6121 80.3667 14.8304V14.6477C80.3667 13.8559 80.524 13.1708 80.8387 12.5921C81.1534 12.0135 81.5949 11.5669 82.1634 11.2522C82.7318 10.9274 83.3866 10.765 84.1276 10.765C84.8585 10.765 85.498 10.9274 86.0461 11.2522C86.5943 11.5669 87.0206 12.0135 87.3252 12.5921C87.6297 13.1708 87.7819 13.8458 87.7819 14.6173V15.2415H82.1329C82.1532 15.8303 82.3613 16.3023 82.7572 16.6576C83.1531 17.0129 83.6404 17.1905 84.219 17.1905C84.7874 17.1905 85.2087 17.0687 85.4828 16.8251C85.7568 16.5713 85.9649 16.2871 86.107 15.9724L87.5536 16.7185C87.4114 16.9926 87.2033 17.287 86.9293 17.6016C86.6653 17.9062 86.3101 18.1701 85.8634 18.3934C85.4168 18.6066 84.8534 18.7132 84.1733 18.7132ZM82.1482 13.9168H86.0005C85.9599 13.4194 85.767 13.0236 85.4219 12.7292C85.0869 12.4348 84.6504 12.2876 84.1124 12.2876C83.5541 12.2876 83.1074 12.4348 82.7725 12.7292C82.4375 13.0236 82.2294 13.4194 82.1482 13.9168ZM89.5795 18.5V10.9781H91.3001V11.8461H91.5589C91.6706 11.5314 91.8584 11.303 92.1223 11.1609C92.3862 11.0187 92.7009 10.9477 93.0664 10.9477H93.9799V12.5008H93.0359C92.5284 12.5008 92.1172 12.6378 91.8026 12.9119C91.4879 13.1758 91.3305 13.5869 91.3305 14.1452V18.5H89.5795ZM98.4699 18.7132C97.4955 18.7132 96.6935 18.5 96.0642 18.0737C95.4348 17.6473 95.0542 17.023 94.9222 16.2008L96.5362 15.7897C96.6072 16.1754 96.7341 16.48 96.9169 16.7033C97.0996 16.9266 97.3229 17.0839 97.5868 17.1753C97.8609 17.2667 98.1553 17.3123 98.4699 17.3123C98.947 17.3123 99.3023 17.2261 99.5358 17.0535C99.7794 16.8809 99.9012 16.6627 99.9012 16.3988C99.9012 16.1247 99.7845 15.9217 99.551 15.7897C99.3277 15.6577 98.9826 15.5461 98.5156 15.4547L98.0436 15.3786C97.5259 15.2771 97.0539 15.14 96.6276 14.9675C96.2012 14.7848 95.8561 14.5411 95.5922 14.2366C95.3384 13.9219 95.2115 13.526 95.2115 13.0489C95.2115 12.3181 95.4805 11.7547 96.0185 11.3588C96.5666 10.9629 97.2823 10.765 98.1654 10.765C99.0079 10.765 99.7033 10.9528 100.251 11.3284C100.8 11.7039 101.155 12.2064 101.317 12.8358L99.7033 13.323C99.6221 12.8967 99.4444 12.5972 99.1704 12.4247C98.8963 12.2419 98.5613 12.1506 98.1654 12.1506C97.7594 12.1506 97.4447 12.2216 97.2214 12.3637C97.0082 12.5059 96.9016 12.7089 96.9016 12.9728C96.9016 13.2367 97.0133 13.4347 97.2366 13.5666C97.4599 13.6986 97.7594 13.795 98.135 13.8559L98.607 13.9473C99.1653 14.0488 99.6678 14.1808 100.114 14.3432C100.571 14.5056 100.932 14.7391 101.195 15.0436C101.459 15.3481 101.591 15.7592 101.591 16.2769C101.591 17.0586 101.307 17.6625 100.739 18.0889C100.18 18.5051 99.4241 18.7132 98.4699 18.7132ZM106.805 18.7132C106.054 18.7132 105.389 18.5558 104.81 18.2412C104.242 17.9163 103.795 17.4646 103.47 16.886C103.155 16.2972 102.998 15.6121 102.998 14.8304V14.6477C102.998 13.8559 103.155 13.1708 103.47 12.5921C103.785 12.0135 104.226 11.5669 104.795 11.2522C105.363 10.9274 106.018 10.765 106.759 10.765C107.49 10.765 108.129 10.9274 108.678 11.2522C109.226 11.5669 109.652 12.0135 109.957 12.5921C110.261 13.1708 110.413 13.8458 110.413 14.6173V15.2415H104.764C104.785 15.8303 104.993 16.3023 105.389 16.6576C105.785 17.0129 106.272 17.1905 106.85 17.1905C107.419 17.1905 107.84 17.0687 108.114 16.8251C108.388 16.5713 108.596 16.2871 108.739 15.9724L110.185 16.7185C110.043 16.9926 109.835 17.287 109.561 17.6016C109.297 17.9062 108.942 18.1701 108.495 18.3934C108.048 18.6066 107.485 18.7132 106.805 18.7132ZM104.78 13.9168H108.632C108.591 13.4194 108.398 13.0236 108.053 12.7292C107.718 12.4348 107.282 12.2876 106.744 12.2876C106.186 12.2876 105.739 12.4348 105.404 12.7292C105.069 13.0236 104.861 13.4194 104.78 13.9168Z" fill="#27292D"/>
</svg>
