<svg width="18" height="18" viewBox="0 0 18 18" fill="none" xmlns="http://www.w3.org/2000/svg">
<path d="M6.5 16.5V10.3334C6.5 9.86664 6.5 9.63328 6.59083 9.45503C6.67072 9.29822 6.79821 9.17074 6.95501 9.09084C7.13327 9.00002 7.36662 9.00002 7.83333 9.00002H10.1667C10.6334 9.00002 10.8667 9.00002 11.045 9.09084C11.2018 9.17074 11.3293 9.29822 11.4092 9.45503C11.5 9.63328 11.5 9.86664 11.5 10.3334V16.5M8.18141 1.30336L2.52949 5.6993C2.15168 5.99315 1.96278 6.14008 1.82669 6.32408C1.70614 6.48707 1.61633 6.67068 1.56169 6.86591C1.5 7.0863 1.5 7.32561 1.5 7.80424V13.8334C1.5 14.7668 1.5 15.2335 1.68166 15.59C1.84144 15.9036 2.09641 16.1586 2.41002 16.3184C2.76654 16.5 3.23325 16.5 4.16667 16.5H13.8333C14.7668 16.5 15.2335 16.5 15.59 16.3184C15.9036 16.1586 16.1586 15.9036 16.3183 15.59C16.5 15.2335 16.5 14.7668 16.5 13.8334V7.80424C16.5 7.32561 16.5 7.0863 16.4383 6.86591C16.3837 6.67068 16.2939 6.48707 16.1733 6.32408C16.0372 6.14008 15.8483 5.99315 15.4705 5.6993L9.81859 1.30336C9.52582 1.07565 9.37943 0.961797 9.21779 0.918031C9.07516 0.879414 8.92484 0.879414 8.78221 0.918031C8.62057 0.961797 8.47418 1.07565 8.18141 1.30336Z" stroke="#1C333A" stroke-width="1.5" stroke-linecap="round" stroke-linejoin="round"/>
</svg>
